#N canvas 0 0 902 533 12;
#X obj 258 73 notein;
#X obj 211 108 mtof;
#X floatatom 211 136 5 0 0 0 - - - 0;
#X obj 212 176 osc~;
#X obj 271 220 *~;
#X obj 211 260 dac~;
#X connect 0 0 1 0;
#X connect 0 1 4 1;
#X connect 1 0 2 0;
#X connect 2 0 3 0;
#X connect 3 0 4 0;
#X connect 4 0 5 0;
