#N canvas 28 195 753 706 12;
#X floatatom 238 186 5 0 0 0 - - - 0;
#X obj 229 593 dac~;
#X obj 351 211 * 2;
#X floatatom 353 250 5 0 0 0 - - - 0;
#X obj 311 292 osc~;
#X obj 249 291 osc~;
#X obj 282 36 notein;
#X obj 237 124 mtof, f 5;
#X obj 274 417 *~;
#X obj 298 174 * 0.0007874;
#X connect 0 0 5 0;
#X connect 0 0 2 0;
#X connect 2 0 3 0;
#X connect 3 0 4 0;
#X connect 4 0 8 1;
#X connect 5 0 8 1;
#X connect 6 0 7 0;
#X connect 6 1 9 0;
#X connect 7 0 0 0;
#X connect 8 0 1 0;
#X connect 9 0 8 0;
