#N canvas 0 0 300 200 10;
#X obj 50 30 ctlin 1 1;
#X obj 50 60 / 127.;
#X obj 50 90 *~;
#X obj 150 30 osc~ 440;
#X obj 50 120 dac~;
#X connect 0 0 1 0;
#X connect 1 0 2 0;
#X connect 3 0 2 1;
#X connect 2 0 4 0;
#X connect 2 0 4 1;
